<svg xmlns="http://www.w3.org/2000/svg" width="234" height="234" viewBox="0 0 234 234" version="1.1"><path d="M 97.894 20.490 C 68.576 26.054, 42.070 45.879, 29.027 72 C 19.348 91.386, 16.003 112.140, 19.426 131.586 C 23.424 154.304, 32.184 171.083, 48.166 186.637 C 59.123 197.301, 69.308 203.709, 82.758 208.401 C 96.200 213.090, 98.922 213.500, 116.500 213.487 C 132.345 213.476, 134.104 213.284, 142.392 210.662 C 160.114 205.056, 171.316 198.548, 183.892 186.551 C 205.117 166.305, 216.753 134.403, 213.100 106.478 C 209.836 81.533, 201.211 63.825, 184.130 47 C 171.616 34.674, 157.439 26.584, 140.164 21.908 C 130.029 19.165, 108.655 18.448, 97.894 20.490 M 100.821 22.497 C 61.336 29.142, 30.690 58.623, 22.524 97.815 C 20.369 108.159, 20.572 126.367, 22.962 137.176 C 36.096 196.566, 101.684 228.729, 156.440 202.629 C 166.298 197.930, 179.442 188.637, 185.021 182.422 C 203.250 162.118, 211.874 138.649, 210.746 112.422 C 209.702 88.151, 200.522 66.850, 183.894 50.115 C 168.797 34.922, 153.230 26.744, 132.081 22.896 C 120.240 20.741, 111.888 20.635, 100.821 22.497 M 88.571 41.886 C 88.197 42.490, 87.444 45.764, 86.897 49.160 C 86.199 53.495, 85.011 56.461, 82.910 59.113 C 78.805 64.296, 74.226 68, 71.923 68 C 70.627 68, 70 68.695, 70 70.132 C 70 76.151, 61.861 83.219, 53 84.896 C 49.975 85.469, 46.150 86.340, 44.500 86.831 C 41.591 87.698, 41.651 87.747, 46.500 88.443 C 55.074 89.675, 57.349 90.848, 62.450 96.666 C 66.253 101.004, 67.400 103.080, 67.400 105.628 C 67.400 108.330, 67.899 109.118, 70.097 109.884 C 72.229 110.627, 72.938 111.673, 73.478 114.870 C 74.186 119.062, 76.211 120.624, 79.367 119.413 C 82.556 118.189, 85.771 121.580, 86.991 127.455 C 88.754 135.947, 89.941 135.722, 91.485 126.604 C 92.305 121.767, 94.095 118.816, 99.888 112.750 C 103.179 109.304, 105.190 108, 107.212 108 C 109.520 108, 110 107.569, 110 105.496 C 110 102.486, 112.596 97.419, 116.007 93.771 C 117.976 91.665, 120.364 90.740, 127.377 89.371 C 137.115 87.469, 136.919 86.829, 126 84.874 C 122.975 84.332, 119.774 83.678, 118.886 83.420 C 116.535 82.738, 109.071 73.550, 108.656 70.827 C 108.420 69.278, 107.590 68.462, 106.172 68.388 C 103.186 68.230, 95.569 61.735, 93.747 57.793 C 92.910 55.982, 91.931 52.021, 91.571 48.991 C 90.847 42.899, 89.669 40.109, 88.571 41.886 M 163.167 92.011 L 160.834 93.955 163.416 101.145 C 164.836 105.100, 165.842 108.492, 165.651 108.683 C 165.459 108.874, 164.213 108.011, 162.881 106.765 C 153.791 98.264, 154.319 98.561, 151.545 100.379 C 148.383 102.451, 148.378 103.536, 151.500 110.596 C 153.909 116.043, 154.816 119.652, 153.235 117.500 C 152.435 116.411, 144.276 109.817, 142.240 108.614 C 141.523 108.191, 139.884 108.733, 138.436 109.872 L 135.891 111.874 146.600 119.937 C 152.490 124.372, 157.577 127.985, 157.905 127.967 C 158.232 127.948, 159.506 127.094, 160.735 126.068 L 162.970 124.203 159.985 116.964 C 158.343 112.983, 157 109.531, 157 109.294 C 157 109.057, 159.733 111.240, 163.074 114.145 C 169.030 119.326, 169.199 119.398, 171.824 117.872 C 173.296 117.016, 174.458 115.907, 174.407 115.408 C 174.176 113.160, 166.558 90.004, 166.059 90.033 C 165.752 90.052, 164.450 90.941, 163.167 92.011 M 123.420 119.886 C 112.062 126.812, 117.238 145, 130.567 145 C 140.145 145, 147.470 134.008, 143.487 125.613 C 140.138 118.556, 130.235 115.730, 123.420 119.886 M 126.635 126.073 C 120.051 131.252, 126.697 140.908, 134.114 136.939 C 138.776 134.444, 138.316 127.376, 133.343 125.110 C 130.071 123.619, 129.683 123.675, 126.635 126.073 M 99.631 127.076 L 97.027 129.124 101.763 135.500 C 104.369 139.006, 108.906 145.278, 111.847 149.436 L 117.194 156.998 120.101 154.928 L 123.008 152.858 118.896 147.179 C 116.635 144.056, 112.325 138.019, 109.318 133.763 C 106.312 129.508, 103.488 125.802, 103.044 125.527 C 102.599 125.252, 101.063 125.949, 99.631 127.076 M 161.500 133.662 C 151.869 138.739, 148.792 147.019, 154.635 152.132 C 157.866 154.959, 160.582 155.165, 166.628 153.040 C 173.561 150.603, 176.580 150.462, 177.377 152.540 C 178.724 156.050, 171.280 162, 165.540 162 C 162.819 162, 162.261 163.751, 163.967 166.938 C 164.753 168.408, 165.637 168.613, 168.717 168.041 C 173.486 167.154, 177.890 164.863, 180.625 161.845 C 185.884 156.042, 186.355 151.201, 182.077 146.923 C 178.529 143.376, 175.327 143.195, 166.816 146.062 C 161.321 147.913, 160.539 147.967, 159.165 146.593 C 157.790 145.219, 157.831 144.844, 159.564 142.929 C 161.989 140.250, 166.273 138, 168.950 138 C 171.017 138, 171.510 136.492, 170.393 133.582 C 169.619 131.564, 165.407 131.602, 161.500 133.662 M 86.994 137.934 C 79.382 140.250, 75.382 144.098, 73.019 151.378 C 70.687 158.563, 75.065 167.763, 82.401 171.095 C 87.778 173.537, 92.382 173.477, 97.711 170.898 C 102.911 168.380, 106.883 163.493, 107.670 158.644 C 108.157 155.645, 107.661 154.289, 104.434 149.801 C 102.339 146.885, 100.528 144.357, 100.410 144.181 C 100.292 144.006, 97.914 145.502, 95.124 147.506 C 90.129 151.095, 90.076 151.187, 91.659 153.603 C 93.167 155.903, 93.412 155.960, 95.606 154.522 C 97.804 153.082, 98.046 153.141, 99.588 155.494 C 101.106 157.811, 101.107 158.187, 99.601 160.486 C 95.349 166.975, 87.834 167.659, 82.750 162.019 C 77.524 156.222, 79.915 147.503, 87.410 145.030 C 89.499 144.340, 91.015 143.072, 91.381 141.707 C 92.682 136.853, 92.125 136.373, 86.994 137.934 M 136.932 152.352 C 134.970 153.060, 130.340 155.797, 126.643 158.435 L 119.922 163.231 121.612 165.866 C 123.650 169.041, 137.951 189.178, 138.951 190.279 C 139.339 190.707, 140.871 190.103, 142.353 188.937 L 145.049 186.816 143.059 183.596 L 141.069 180.375 146.009 176.687 C 155.019 169.961, 156.462 161.919, 149.824 155.434 C 145.868 151.570, 141.796 150.597, 136.932 152.352 M 133.778 161.112 L 129.057 164.200 132.778 169.562 C 134.825 172.511, 136.885 174.941, 137.356 174.962 C 137.827 174.983, 139.964 173.612, 142.106 171.916 C 146.827 168.177, 147.430 163.692, 143.686 160.174 C 140.643 157.316, 139.402 157.433, 133.778 161.112 M 110.184 169.997 L 107.869 171.927 112.609 178.713 C 121.656 191.668, 127.164 199, 127.830 198.978 C 128.199 198.966, 129.595 198.114, 130.934 197.085 L 133.368 195.214 123.595 181.607 C 118.220 174.123, 113.525 168.015, 113.161 168.033 C 112.798 168.052, 111.458 168.935, 110.184 169.997" stroke="none" fill="#e9d18a" fill-rule="evenodd"/><path d="M 106.624 6.799 C 105.748 8.217, 107.266 13, 108.592 13 C 109.618 13, 109.724 12.404, 109.025 10.567 C 108.387 8.887, 108.456 8.015, 109.250 7.750 C 109.923 7.526, 109.708 7.102, 108.731 6.727 C 107.814 6.375, 106.866 6.408, 106.624 6.799 M 113.197 10 C 113.323 11.650, 113.780 13, 114.213 13 C 114.646 13, 115 11.650, 115 10 C 115 8.350, 114.543 7, 113.984 7 C 113.425 7, 113.071 8.350, 113.197 10 M 118.290 10.002 C 118.165 11.797, 118.566 12.999, 119.290 12.998 C 119.956 12.997, 120.594 11.647, 120.710 9.998 C 120.835 8.203, 120.434 7.001, 119.710 7.002 C 119.044 7.003, 118.406 8.353, 118.290 10.002 M 122.748 7.662 C 123.520 7.973, 123.765 9.087, 123.390 10.583 C 123.054 11.922, 123.225 13, 123.775 13 C 124.939 13, 125.859 10.047, 125.254 8.250 C 125.023 7.563, 124.083 7.036, 123.167 7.079 C 122.130 7.128, 121.972 7.348, 122.748 7.662 M 96.812 8.521 C 96.025 9.308, 97.169 15, 98.113 15 C 99.254 15, 99.277 9.289, 98.139 8.586 C 97.666 8.294, 97.069 8.265, 96.812 8.521 M 100.800 9.200 C 101.460 9.860, 102 11.210, 102 12.200 C 102 13.190, 102.450 14, 103 14 C 103.550 14, 104 13.362, 104 12.582 C 104 9.961, 102.798 8, 101.193 8 C 99.954 8, 99.867 8.267, 100.800 9.200 M 128.872 8.180 C 128.802 8.356, 128.644 9.400, 128.520 10.500 C 128.396 11.600, 127.978 13.498, 127.591 14.717 C 127.016 16.526, 127.345 17.049, 129.386 17.561 C 134 18.719, 135.903 15.224, 131.750 13.220 L 129.500 12.135 131.823 12.068 C 134.883 11.979, 134.380 8.628, 131.240 8.180 C 130.008 8.005, 128.943 8.005, 128.872 8.180 M 143.300 9.660 C 142.878 10.760, 143.565 12.039, 145.339 13.453 C 147.428 15.119, 147.749 15.851, 146.807 16.793 C 146.024 17.576, 145.979 18, 146.678 18 C 147.270 18, 148.358 17.273, 149.095 16.385 C 150.249 14.996, 150.057 14.446, 147.718 12.433 C 144.523 9.686, 144.423 9.297, 146.750 8.689 C 148.049 8.350, 147.912 8.202, 146.219 8.116 C 144.935 8.051, 143.659 8.726, 143.300 9.660 M 91.825 9.508 C 91.008 10.325, 92.108 15, 93.117 15 C 93.602 15, 93.993 14.213, 93.985 13.250 C 93.966 11.153, 92.581 8.753, 91.825 9.508 M 130 10 C 130 10.550, 130.450 11, 131 11 C 131.550 11, 132 10.550, 132 10 C 132 9.450, 131.550 9, 131 9 C 130.450 9, 130 9.450, 130 10 M 149 10 C 149 10.550, 149.477 11, 150.059 11 C 150.641 11, 150.840 10.550, 150.500 10 C 150.160 9.450, 149.684 9, 149.441 9 C 149.198 9, 149 9.450, 149 10 M 87.344 13.492 C 87.980 14.863, 89.053 15.988, 89.729 15.992 C 90.676 15.998, 90.697 15.428, 89.818 13.500 C 89.192 12.125, 88.119 11, 87.434 11 C 86.464 11, 86.444 11.551, 87.344 13.492 M 154 12 C 154 12.550, 154.450 13, 155 13 C 155.550 13, 156 12.550, 156 12 C 156 11.450, 155.550 11, 155 11 C 154.450 11, 154 11.450, 154 12 M 78.531 14.250 C 76.903 18.076, 80.859 20.741, 83.800 17.800 C 85.428 16.172, 85.321 13, 83.639 13 C 82.708 13, 82.436 13.832, 82.780 15.631 C 83.435 19.057, 80.836 18.418, 79.915 14.926 C 79.362 12.830, 79.174 12.738, 78.531 14.250 M 142 14.941 C 142 15.459, 142.445 16.157, 142.989 16.493 C 143.555 16.843, 143.723 16.442, 143.382 15.552 C 142.717 13.820, 142 13.503, 142 14.941 M 152.198 16.464 C 151.437 18.135, 151.407 19.133, 152.104 19.564 C 153.390 20.359, 153.564 20.143, 154.378 16.750 C 155.198 13.332, 153.714 13.138, 152.198 16.464 M 129 16 C 129 16.550, 129.900 17, 131 17 C 132.100 17, 133 16.550, 133 16 C 133 15.450, 132.100 15, 131 15 C 129.900 15, 129 15.450, 129 16 M 157.306 19 C 156.410 21.373, 156.445 22, 157.470 22 C 158.183 22, 159.002 21.100, 159.290 20 C 159.577 18.900, 160.305 18, 160.906 18 C 162.263 18, 162.307 19.558, 161.018 21.966 C 160.313 23.284, 160.403 23.941, 161.337 24.299 C 162.109 24.595, 163.085 23.613, 163.738 21.883 C 164.753 19.195, 164.615 18.852, 161.969 17.484 C 158.319 15.597, 158.629 15.496, 157.306 19 M 70.375 18.466 C 69.602 20.479, 71.206 22.318, 73.320 21.844 C 74.626 21.551, 74.568 21.151, 72.934 19.149 C 71.256 17.093, 70.935 17.007, 70.375 18.466 M 64.200 20.200 C 62.514 21.886, 62.707 24.950, 64.543 25.655 C 66.857 26.543, 67.456 25.313, 65.610 23.467 C 63.750 21.607, 64.339 19.809, 66.532 20.651 C 67.339 20.960, 68 20.716, 68 20.107 C 68 18.638, 65.706 18.694, 64.200 20.200 M 195 20.059 C 195 20.641, 195.450 20.840, 196 20.500 C 196.550 20.160, 197 19.684, 197 19.441 C 197 19.198, 196.550 19, 196 19 C 195.450 19, 195 19.477, 195 20.059 M 198.500 23 C 198.500 25.348, 198.975 27, 199.650 27 C 200.350 27, 200.741 25.436, 200.650 23.006 C 200.454 17.792, 198.500 17.787, 198.500 23 M 202.500 20 C 202.840 20.550, 203.316 21, 203.559 21 C 203.802 21, 204 20.550, 204 20 C 204 19.450, 203.523 19, 202.941 19 C 202.359 19, 202.160 19.450, 202.500 20 M 206.118 23.250 C 206.222 26.958, 206.317 27.129, 206.868 24.594 L 207.500 21.688 208.929 24.363 C 209.961 26.294, 210.583 26.685, 211.164 25.769 C 212.228 24.092, 212.218 22.747, 211.146 23.410 C 210.677 23.700, 209.786 22.826, 209.168 21.469 C 207.442 17.680, 205.987 18.530, 206.118 23.250 M 212.638 20.500 C 212.322 21.325, 212.507 22, 213.050 22 C 213.605 22, 213.763 23.097, 213.411 24.500 C 212.972 26.248, 213.192 27, 214.142 27 C 215.060 27, 215.500 25.704, 215.500 23 C 215.500 19.021, 213.782 17.520, 212.638 20.500 M 166.337 20.670 C 166.705 21.039, 166.347 22.347, 165.541 23.578 C 164.308 25.459, 164.295 25.899, 165.455 26.344 C 166.214 26.635, 167.097 26.190, 167.417 25.355 C 168.384 22.836, 168.074 20, 166.833 20 C 166.192 20, 165.968 20.302, 166.337 20.670 M 100.821 22.497 C 61.336 29.142, 30.690 58.623, 22.524 97.815 C 20.369 108.159, 20.572 126.367, 22.962 137.176 C 36.096 196.566, 101.684 228.729, 156.440 202.629 C 166.298 197.930, 179.442 188.637, 185.021 182.422 C 203.250 162.118, 211.874 138.649, 210.746 112.422 C 209.702 88.151, 200.522 66.850, 183.894 50.115 C 168.797 34.922, 153.230 26.744, 132.081 22.896 C 120.240 20.741, 111.888 20.635, 100.821 22.497 M 53 24.500 C 53 25.325, 53.675 26, 54.500 26 C 55.325 26, 56 26.450, 56 27 C 56 27.550, 55.550 28, 55 28 C 54.450 28, 54 29.125, 54 30.500 C 54 33.025, 55.361 33.842, 56.500 32 C 56.840 31.450, 56.641 31, 56.059 31 C 54.411 31, 54.814 29.009, 56.601 28.323 C 57.481 27.985, 58.520 28.224, 58.910 28.854 C 59.424 29.686, 60.149 29.598, 61.559 28.532 C 63.046 27.407, 63.149 27.051, 62 27.010 C 61.175 26.980, 59.375 26.076, 58 25 C 54.999 22.653, 53 22.453, 53 24.500 M 170.978 24.250 C 170.966 24.938, 170.076 26.625, 169 28 C 166.830 30.774, 166.513 32, 167.964 32 C 168.494 32, 170.053 30.345, 171.427 28.322 C 173.578 25.157, 174.024 24.898, 174.626 26.467 C 175.094 27.687, 174.693 28.763, 173.412 29.723 C 171.592 31.089, 171.619 31.142, 173.990 30.829 C 177.385 30.380, 177.852 27.161, 174.855 24.856 C 172.067 22.711, 171.008 22.546, 170.978 24.250 M 179.967 30.553 C 178.760 32.507, 178.068 34.401, 178.430 34.764 C 179.220 35.553, 183.913 30.030, 183.964 28.250 C 184.031 25.916, 182.171 26.987, 179.967 30.553 M 182.570 35.678 C 182.192 36.662, 182.619 38.005, 183.604 38.928 C 184.527 39.792, 184.965 39.934, 184.577 39.242 C 183.718 37.710, 186.584 34.518, 187.495 35.992 C 187.838 36.547, 187.859 37.419, 187.543 37.931 C 187.226 38.443, 187.394 39.125, 187.915 39.447 C 189.758 40.587, 190.171 37.846, 188.443 35.937 C 186.287 33.555, 183.433 33.429, 182.570 35.678 M 44.020 36.524 C 45.663 38.503, 44.503 39.663, 42.524 38.020 C 39.974 35.904, 40.695 39.082, 43.484 42.250 C 46.332 45.486, 46.992 45.687, 46.319 43.113 C 45.712 40.791, 47.895 39.225, 49.096 41.122 C 49.740 42.138, 49.973 41.891, 49.985 40.183 C 49.997 38.318, 49.609 37.989, 48 38.500 C 46.440 38.995, 46 38.680, 46 37.067 C 46 35.827, 45.351 35, 44.378 35 C 43.037 35, 42.975 35.265, 44.020 36.524 M 189.850 41.983 C 188.709 43.240, 188.520 44.120, 189.239 44.839 C 189.958 45.558, 190.823 45.205, 192.047 43.694 C 194.891 40.181, 192.897 38.628, 189.850 41.983 M 36.709 41.624 C 35.880 42.454, 40.257 45.959, 41.310 45.308 C 41.761 45.030, 41.356 43.946, 40.410 42.901 C 38.597 40.897, 37.734 40.599, 36.709 41.624 M 88.571 41.886 C 88.197 42.490, 87.444 45.764, 86.897 49.160 C 86.199 53.495, 85.011 56.461, 82.910 59.113 C 78.805 64.296, 74.226 68, 71.923 68 C 70.627 68, 70 68.695, 70 70.132 C 70 76.151, 61.861 83.219, 53 84.896 C 49.975 85.469, 46.150 86.340, 44.500 86.831 C 41.591 87.698, 41.651 87.747, 46.500 88.443 C 55.074 89.675, 57.349 90.848, 62.450 96.666 C 66.253 101.004, 67.400 103.080, 67.400 105.628 C 67.400 108.330, 67.899 109.118, 70.097 109.884 C 72.229 110.627, 72.938 111.673, 73.478 114.870 C 74.186 119.062, 76.211 120.624, 79.367 119.413 C 82.556 118.189, 85.771 121.580, 86.991 127.455 C 88.754 135.947, 89.941 135.722, 91.485 126.604 C 92.305 121.767, 94.095 118.816, 99.888 112.750 C 103.179 109.304, 105.190 108, 107.212 108 C 109.520 108, 110 107.569, 110 105.496 C 110 102.486, 112.596 97.419, 116.007 93.771 C 117.976 91.665, 120.364 90.740, 127.377 89.371 C 137.115 87.469, 136.919 86.829, 126 84.874 C 122.975 84.332, 119.774 83.678, 118.886 83.420 C 116.535 82.738, 109.071 73.550, 108.656 70.827 C 108.420 69.278, 107.590 68.462, 106.172 68.388 C 103.186 68.230, 95.569 61.735, 93.747 57.793 C 92.910 55.982, 91.931 52.021, 91.571 48.991 C 90.847 42.899, 89.669 40.109, 88.571 41.886 M 194.500 44 C 194.840 44.550, 195.316 45, 195.559 45 C 195.802 45, 196 44.550, 196 44 C 196 43.450, 195.523 43, 194.941 43 C 194.359 43, 194.160 43.450, 194.500 44 M 34.118 44.927 C 33.038 45.595, 33.200 46.200, 34.918 47.918 C 36.103 49.103, 37.555 49.775, 38.143 49.411 C 38.789 49.012, 38.840 48.502, 38.271 48.125 C 37.753 47.781, 36.911 46.733, 36.400 45.795 C 35.794 44.683, 35.001 44.382, 34.118 44.927 M 27 48 C 27 48.550, 27.450 49, 28 49 C 28.550 49, 29 48.550, 29 48 C 29 47.450, 28.550 47, 28 47 C 27.450 47, 27 47.450, 27 48 M 29.745 49.750 C 29.539 50.163, 30.382 51.466, 31.618 52.646 C 33.269 54.223, 33.998 54.447, 34.365 53.490 C 34.640 52.774, 34.073 51.471, 33.104 50.594 C 31.159 48.834, 30.307 48.620, 29.745 49.750 M 26.556 53.910 C 26.247 54.410, 26.268 55.535, 26.604 56.410 C 27.267 58.137, 25.508 58.631, 24.500 57 C 23.725 55.745, 21 55.682, 21 56.918 C 21 57.832, 27.099 62, 28.435 62 C 28.820 62, 28.867 61.156, 28.539 60.124 C 28.108 58.766, 28.573 58.037, 30.222 57.483 C 32.416 56.746, 32.396 56.702, 29.671 56.285 C 27.728 55.987, 27.014 55.406, 27.390 54.426 C 27.998 52.841, 27.433 52.491, 26.556 53.910 M 20.500 64 C 20.160 64.550, 20.376 65, 20.979 65 C 21.582 65, 21.946 66.190, 21.788 67.645 C 21.388 71.316, 23.173 71.560, 25.140 68.104 C 26.735 65.301, 26.713 65.190, 24.343 64.110 C 21.369 62.756, 21.271 62.753, 20.500 64 M 19 67.559 C 19 68.416, 19.457 68.835, 20.016 68.490 C 20.575 68.144, 20.774 67.443, 20.457 66.931 C 19.600 65.544, 19 65.802, 19 67.559 M 23.079 67.583 C 23.127 68.748, 23.364 68.985, 23.683 68.188 C 23.972 67.466, 23.936 66.603, 23.604 66.271 C 23.272 65.939, 23.036 66.529, 23.079 67.583 M 13.617 71.555 C 13.269 72.462, 13.866 74.407, 14.965 75.951 L 16.938 78.721 12.969 80.280 C 10.786 81.138, 9 82.273, 9 82.803 C 9 83.834, 13.104 85.230, 13.873 84.460 C 14.126 84.207, 13.782 84, 13.108 84 C 12.434 84, 12.160 83.550, 12.500 83 C 12.840 82.450, 13.879 81.993, 14.809 81.985 C 15.739 81.976, 17.157 81.554, 17.960 81.046 C 19.232 80.241, 19.219 79.888, 17.862 78.311 C 14.630 74.554, 14.610 73.747, 17.792 75.393 C 20.519 76.803, 20.862 76.803, 21.403 75.393 C 22.252 73.180, 22.181 73, 20.465 73 C 19.620 73, 17.875 72.309, 16.586 71.464 C 14.462 70.073, 14.183 70.081, 13.617 71.555 M 15.510 86.016 C 15.856 86.575, 16.557 86.774, 17.069 86.457 C 18.456 85.600, 18.198 85, 16.441 85 C 15.584 85, 15.165 85.457, 15.510 86.016 M 163.167 92.011 L 160.834 93.955 163.416 101.145 C 164.836 105.100, 165.842 108.492, 165.651 108.683 C 165.459 108.874, 164.213 108.011, 162.881 106.765 C 153.791 98.264, 154.319 98.561, 151.545 100.379 C 148.383 102.451, 148.378 103.536, 151.500 110.596 C 153.909 116.043, 154.816 119.652, 153.235 117.500 C 152.435 116.411, 144.276 109.817, 142.240 108.614 C 141.523 108.191, 139.884 108.733, 138.436 109.872 L 135.891 111.874 146.600 119.937 C 152.490 124.372, 157.577 127.985, 157.905 127.967 C 158.232 127.948, 159.506 127.094, 160.735 126.068 L 162.970 124.203 159.985 116.964 C 158.343 112.983, 157 109.531, 157 109.294 C 157 109.057, 159.733 111.240, 163.074 114.145 C 169.030 119.326, 169.199 119.398, 171.824 117.872 C 173.296 117.016, 174.458 115.907, 174.407 115.408 C 174.176 113.160, 166.558 90.004, 166.059 90.033 C 165.752 90.052, 164.450 90.941, 163.167 92.011 M 123.420 119.886 C 112.062 126.812, 117.238 145, 130.567 145 C 140.145 145, 147.470 134.008, 143.487 125.613 C 140.138 118.556, 130.235 115.730, 123.420 119.886 M 126.635 126.073 C 120.051 131.252, 126.697 140.908, 134.114 136.939 C 138.776 134.444, 138.316 127.376, 133.343 125.110 C 130.071 123.619, 129.683 123.675, 126.635 126.073 M 99.631 127.076 L 97.027 129.124 101.763 135.500 C 104.369 139.006, 108.906 145.278, 111.847 149.436 L 117.194 156.998 120.101 154.928 L 123.008 152.858 118.896 147.179 C 116.635 144.056, 112.325 138.019, 109.318 133.763 C 106.312 129.508, 103.488 125.802, 103.044 125.527 C 102.599 125.252, 101.063 125.949, 99.631 127.076 M 161.500 133.662 C 151.869 138.739, 148.792 147.019, 154.635 152.132 C 157.866 154.959, 160.582 155.165, 166.628 153.040 C 173.561 150.603, 176.580 150.462, 177.377 152.540 C 178.724 156.050, 171.280 162, 165.540 162 C 162.819 162, 162.261 163.751, 163.967 166.938 C 164.753 168.408, 165.637 168.613, 168.717 168.041 C 173.486 167.154, 177.890 164.863, 180.625 161.845 C 185.884 156.042, 186.355 151.201, 182.077 146.923 C 178.529 143.376, 175.327 143.195, 166.816 146.062 C 161.321 147.913, 160.539 147.967, 159.165 146.593 C 157.790 145.219, 157.831 144.844, 159.564 142.929 C 161.989 140.250, 166.273 138, 168.950 138 C 171.017 138, 171.510 136.492, 170.393 133.582 C 169.619 131.564, 165.407 131.602, 161.500 133.662 M 86.994 137.934 C 79.382 140.250, 75.382 144.098, 73.019 151.378 C 70.687 158.563, 75.065 167.763, 82.401 171.095 C 87.778 173.537, 92.382 173.477, 97.711 170.898 C 102.911 168.380, 106.883 163.493, 107.670 158.644 C 108.157 155.645, 107.661 154.289, 104.434 149.801 C 102.339 146.885, 100.528 144.357, 100.410 144.181 C 100.292 144.006, 97.914 145.502, 95.124 147.506 C 90.129 151.095, 90.076 151.187, 91.659 153.603 C 93.167 155.903, 93.412 155.960, 95.606 154.522 C 97.804 153.082, 98.046 153.141, 99.588 155.494 C 101.106 157.811, 101.107 158.187, 99.601 160.486 C 95.349 166.975, 87.834 167.659, 82.750 162.019 C 77.524 156.222, 79.915 147.503, 87.410 145.030 C 89.499 144.340, 91.015 143.072, 91.381 141.707 C 92.682 136.853, 92.125 136.373, 86.994 137.934 M 136.932 152.352 C 134.970 153.060, 130.340 155.797, 126.643 158.435 L 119.922 163.231 121.612 165.866 C 123.650 169.041, 137.951 189.178, 138.951 190.279 C 139.339 190.707, 140.871 190.103, 142.353 188.937 L 145.049 186.816 143.059 183.596 L 141.069 180.375 146.009 176.687 C 155.019 169.961, 156.462 161.919, 149.824 155.434 C 145.868 151.570, 141.796 150.597, 136.932 152.352 M 133.778 161.112 L 129.057 164.200 132.778 169.562 C 134.825 172.511, 136.885 174.941, 137.356 174.962 C 137.827 174.983, 139.964 173.612, 142.106 171.916 C 146.827 168.177, 147.430 163.692, 143.686 160.174 C 140.643 157.316, 139.402 157.433, 133.778 161.112 M 110.184 169.997 L 107.869 171.927 112.609 178.713 C 121.656 191.668, 127.164 199, 127.830 198.978 C 128.199 198.966, 129.595 198.114, 130.934 197.085 L 133.368 195.214 123.595 181.607 C 118.220 174.123, 113.525 168.015, 113.161 168.033 C 112.798 168.052, 111.458 168.935, 110.184 169.997" stroke="none" fill="#4d94f0" fill-rule="evenodd"/></svg>